<svg aria-hidden="true" style="position: absolute; width: 0; height: 0; overflow: hidden;" version="1.1" xmlns="http://www.w3.org/2000/svg" xmlns:xlink="http://www.w3.org/1999/xlink">
<defs>
<symbol id="icon-logotype" viewBox="0 0 178 32">
<path d="M0 31.4v-31.4h13.412c2.408 0 4.424 0.332 6.047 0.997 1.633 0.664 2.858 1.595 3.675 2.79 0.827 1.196 1.241 2.581 1.241 4.155 0 1.196-0.257 2.264-0.77 3.204-0.513 0.93-1.22 1.702-2.12 2.315s-1.942 1.043-3.125 1.288v0.307c1.298 0.061 2.497 0.404 3.597 1.027 1.11 0.624 2 1.492 2.67 2.607 0.67 1.104 1.005 2.412 1.005 3.925 0 1.686-0.44 3.194-1.319 4.523-0.879 1.319-2.152 2.361-3.816 3.128-1.665 0.756-3.686 1.135-6.062 1.135h-14.433zM7.774 25.282h4.806c1.686 0 2.926-0.312 3.722-0.935 0.806-0.624 1.209-1.492 1.209-2.607 0-0.807-0.194-1.503-0.581-2.085-0.387-0.593-0.937-1.048-1.649-1.365-0.712-0.327-1.565-0.491-2.56-0.491h-4.947v7.482zM7.774 12.91h4.303c0.848 0 1.602-0.138 2.262-0.414s1.173-0.675 1.539-1.196c0.377-0.521 0.565-1.15 0.565-1.886 0-1.053-0.382-1.881-1.147-2.484s-1.796-0.905-3.094-0.905h-4.429v6.884z"></path>
<path d="M27.767 0h8.685l6.8 13.14h0.283l6.8-13.14h8.685l-11.763 20.913v10.487h-7.727v-10.487l-11.763-20.913z"></path>
<path d="M63.258 6.163v-6.163h27.186v6.163h-9.753v25.237h-7.664v-25.237h-9.769z"></path>
<path d="M94.241 31.4v-31.4h22.427v6.163h-14.652v6.439h13.507v6.179h-13.507v6.455h14.652v6.163h-22.427z"></path>
<path d="M121.537 31.4v-31.4h22.427v6.163h-14.652v6.439h13.507v6.179h-13.507v6.455h14.652v6.163h-22.427z"></path>
<path d="M156.701 0l5.874 9.92h0.251l0.252-0.42-6.376-9.5z"></path>
<path d="M162.575 9.92l-5.874-9.92h-8.764l9.722 15.7-9.973 15.7h8.858l6.031-10.027h0.251l6.031 10.027h8.921l-14.7-21.9-0.252 0.42h-0.251z"></path>
<path d="M169.934 0h7.844v7.85h-7.844v-7.85z"></path>
</symbol>
<symbol id="icon-sunmoon" viewBox="0 0 32 32">
<path fill="none" stroke="#15005b" style="stroke: var(--color1, #15005b)" stroke-linejoin="round" stroke-linecap="round" stroke-miterlimit="10" stroke-width="1.5304" d="M16 2.087v28.522"></path>
<path fill="none" stroke="#15005b" style="stroke: var(--color1, #15005b)" stroke-linejoin="round" stroke-linecap="round" stroke-miterlimit="10" stroke-width="1.5304" d="M16 24.027c-4.245 0-7.679-3.434-7.679-7.679s3.434-7.679 7.679-7.679"></path>
<path fill="none" stroke="#15005b" style="stroke: var(--color1, #15005b)" stroke-linejoin="round" stroke-linecap="round" stroke-miterlimit="10" stroke-width="1.5304" d="M5.918 6.267l2.326 2.326"></path>
<path fill="none" stroke="#15005b" style="stroke: var(--color1, #15005b)" stroke-linejoin="round" stroke-linecap="round" stroke-miterlimit="10" stroke-width="1.5304" d="M1.739 16.348h3.291"></path>
<path fill="none" stroke="#15005b" style="stroke: var(--color1, #15005b)" stroke-linejoin="round" stroke-linecap="round" stroke-miterlimit="10" stroke-width="1.5304" d="M5.918 26.43l2.326-2.326"></path>
<path fill="none" stroke="#15005b" style="stroke: var(--color1, #15005b)" stroke-linejoin="round" stroke-linecap="round" stroke-miterlimit="10" stroke-width="1.5304" d="M16 12.563c1.316-2.326 3.817-3.894 6.681-3.894 0.176 0 0.34 0.011 0.516 0.022-1.832 0.965-3.072 2.885-3.072 5.090 0 3.181 2.578 5.759 5.759 5.759 1.755 0 3.324-0.79 4.377-2.029-0.57 3.697-3.741 6.516-7.58 6.516-2.863 0-5.364-1.569-6.681-3.894"></path>
</symbol>
<symbol id="icon-basket" viewBox="0 0 40 32">
<path fill="#01005b" style="fill: var(--color2, #01005b); stroke: var(--color2, #01005b)" stroke="#01005b" stroke-linejoin="miter" stroke-linecap="butt" stroke-miterlimit="4" stroke-width="0.5647" d="M11.948 6.099c0-0.435 0.363-0.788 0.811-0.788h18.968c0.236 0 0.461 0.1 0.615 0.274s0.222 0.405 0.187 0.632l-0.81 5.163c-0.061 0.39-0.407 0.669-0.801 0.669-0.041 0-0.082-0.003-0.123-0.009-0.443-0.066-0.747-0.468-0.68-0.898l0.668-4.256h-18.024c-0.448 0-0.811-0.353-0.811-0.788zM18.107 19.535h-7.19l-2.998-16.997c-0.067-0.378-0.404-0.655-0.8-0.655h-4.426c-0.448 0-0.811 0.353-0.811 0.788s0.363 0.788 0.811 0.788h3.742l2.998 16.998c0.068 0.384 0.411 0.655 0.799 0.655 0.045-0 0.092-0.004 0.138-0.011 0.003-0.001 0.006-0.001 0.010-0.002 0.048 0.009 0.097 0.013 0.147 0.013h7.581c0.448 0 0.811-0.353 0.811-0.788s-0.363-0.788-0.811-0.788zM16.539 25.112v1.399c0 1.314-1.101 2.384-2.454 2.384s-2.454-1.070-2.454-2.384v-1.399c0-1.315 1.101-2.384 2.454-2.384s2.454 1.069 2.454 2.384zM14.917 25.112c0-0.445-0.373-0.808-0.832-0.808h-0c-0.458 0-0.831 0.362-0.831 0.808v1.399c0 0.445 0.373 0.808 0.831 0.808s0.832-0.362 0.832-0.808v-1.399zM37.535 17.761c-0.479 3.736-2.427 7.068-5.485 9.381-2.574 1.947-5.675 2.976-8.886 2.976-0.604 0-1.213-0.037-1.822-0.11-0.51-0.062-1.024-0.151-1.528-0.266-0.338-0.077-0.589-0.354-0.623-0.69-0.105-1.040-0.091-2.095 0.042-3.136 0.989-7.713 8.253-13.207 16.193-12.246 0.51 0.062 1.024 0.151 1.528 0.266 0.338 0.077 0.589 0.354 0.623 0.69 0.106 1.039 0.091 2.095-0.042 3.136zM36.007 15.352c-0.26-0.047-0.521-0.087-0.781-0.118-7.051-0.853-13.504 4.027-14.382 10.877-0.050 0.391-0.081 0.784-0.094 1.177l7.423-6.317c0.337-0.287 0.849-0.254 1.145 0.073s0.261 0.825-0.076 1.112l-7.424 6.318c3.322 0.333 6.591-0.577 9.234-2.576 2.716-2.054 4.447-5.013 4.872-8.332 0.094-0.735 0.122-1.478 0.082-2.215z"></path>
</symbol>
<symbol id="icon-waves" viewBox="0 0 34 32">
<path fill="#01005b" style="fill: var(--color1, #01005b)" d="M3.147 8.124c3.345-3.243 5.987-5.807 13.156-1.232 3.444 2.197 6.222 3.027 8.533 3.023 4.049 0 6.674-2.543 8.943-4.742 0.389-0.383 0.632-0.921 0.675-1.502s-0.115-1.158-0.442-1.609c-0.16-0.221-0.357-0.404-0.58-0.538s-0.468-0.216-0.719-0.241-0.505 0.007-0.746 0.094c-0.241 0.087-0.463 0.228-0.655 0.415-3.343 3.248-5.986 5.812-13.156 1.232-9.473-6.039-13.911-1.736-17.475 1.723-0.389 0.383-0.631 0.922-0.674 1.503s0.115 1.158 0.443 1.609c0.16 0.221 0.357 0.404 0.58 0.537s0.468 0.215 0.719 0.24c0.252 0.025 0.505-0.008 0.745-0.095s0.462-0.229 0.653-0.415zM31.313 12.833c-3.343 3.243-5.986 5.812-13.156 1.232-9.473-6.043-13.911-1.738-17.475 1.719-0.389 0.383-0.631 0.922-0.674 1.503s0.115 1.158 0.443 1.609c0.159 0.221 0.356 0.404 0.579 0.538s0.467 0.216 0.719 0.241c0.252 0.025 0.505-0.007 0.745-0.094s0.463-0.228 0.654-0.415c3.345-3.245 5.987-5.81 13.156-1.237 3.444 2.201 6.222 3.027 8.533 3.027 4.049 0 6.674-2.543 8.943-4.746 0.39-0.382 0.632-0.92 0.676-1.501s-0.115-1.158-0.442-1.608c-0.16-0.222-0.357-0.405-0.58-0.538s-0.468-0.216-0.719-0.241c-0.252-0.025-0.505 0.007-0.746 0.095s-0.463 0.229-0.654 0.416zM31.313 23.873c-3.343 3.247-5.986 5.812-13.156 1.237-9.473-6.043-13.911-1.741-17.475 1.719-0.389 0.383-0.631 0.922-0.674 1.503s0.115 1.158 0.443 1.609c0.159 0.221 0.356 0.404 0.58 0.538s0.468 0.215 0.719 0.24 0.505-0.008 0.745-0.096c0.24-0.088 0.462-0.229 0.653-0.416 3.345-3.243 5.987-5.805 13.156-1.233 3.444 2.197 6.222 3.027 8.533 3.027 4.049 0 6.674-2.547 8.943-4.746 0.389-0.383 0.632-0.921 0.675-1.502s-0.115-1.158-0.442-1.609c-0.16-0.221-0.357-0.404-0.58-0.538s-0.468-0.216-0.719-0.241-0.505 0.007-0.746 0.094c-0.241 0.087-0.463 0.228-0.655 0.414z"></path>
</symbol>
<symbol id="icon-logo1" viewBox="0 0 259 32">
<path d="M0 0h258.909v32h-258.909v-32z"></path>
</symbol>
<symbol id="icon-logo2" viewBox="0 0 68 32">
<path d="M0 0h68.308v32h-68.308v-32z"></path>
</symbol>
<symbol id="icon-logo3" viewBox="0 0 164 32">
<path d="M0 0h163.623v32h-163.623v-32z"></path>
</symbol>
<symbol id="icon-logo4" viewBox="0 0 168 32">
<path d="M0 0h167.784v32h-167.784v-32z"></path>
</symbol>
<symbol id="icon-logo5" viewBox="0 0 106 32">
<path d="M0 0h105.931v32h-105.931v-32z"></path>
</symbol>
</defs>
</svg>